<?xml version="1.0" encoding="utf-8"?>
<!-- Generator: Adobe Illustrator 28.3.0, SVG Export Plug-In . SVG Version: 6.00 Build 0)  -->
<svg version="1.1" id="RobeeX" xmlns="http://www.w3.org/2000/svg" xmlns:xlink="http://www.w3.org/1999/xlink" x="0px" y="0px"
	 viewBox="0 0 969.12 870.72" style="enable-background:new 0 0 969.12 870.72;" xml:space="preserve">
<style type="text/css">
	.st0{fill:#FFE000;}
	.st1{fill-rule:evenodd;clip-rule:evenodd;fill:#374151;}
</style>
<polyline id="BG" class="st0" points="495.96,111.65 199.32,283.25 199.08,626.93 496.44,798.53 793.56,626.93 792.84,283.97 
	495.96,111.65 "/>
<path id="LINE" class="st1" d="M268.88,323.33c75.67,43.76,151.37,87.52,227.04,131.28c98.87-56.87,197.77-113.77,296.64-170.64
	c0.24,114.31,0.48,228.65,0.72,342.96c-99.03,57.19-198.09,114.41-297.12,171.6c-99.11-57.19-198.25-114.41-297.36-171.6
	c0.16-70.55,0.32-141.13,0.48-211.68c99.19,57.27,198.41,114.57,297.6,171.84c60.79-35.2,121.61-70.4,182.4-105.6
	c0.08,26.72,0.16,53.44,0.24,80.16c-61.27,35.12-122.57,70.24-183.84,105.36c-75.75-43.6-151.53-87.2-227.28-130.8
	c0,17.12,0,34.24,0,51.36c75.91,43.76,151.85,87.52,227.76,131.28c76.07-43.92,152.17-87.84,228.24-131.76
	c0-61.11,0-122.25,0-183.36c-76.07,43.84-152.17,87.68-228.24,131.52c-99.03-57.19-198.09-114.41-297.12-171.6c0-26.8,0-53.6,0-80.4
	c98.87-57.19,197.77-114.41,296.64-171.6c84.07,48.64,168.17,97.28,252.24,145.92c-84.07,48.4-168.17,96.8-252.24,145.2
	c-45.92-26.4-91.84-52.8-137.76-79.2c23.12-13.44,46.24-26.88,69.36-40.32c23.04,13.28,46.08,26.56,69.12,39.84
	c37.68-21.92,75.36-43.84,113.04-65.76c-37.92-21.84-75.84-43.68-113.76-65.52C420.09,235.65,344.47,279.5,268.88,323.33z"/>
<path id="_x31_" class="st1" d="M465.48,129.41c0,0-33.26-41.72-102.42-57.5c-29.12-6.83-102.4-7.95-93.98,24.36
	c7.51,24.57,33.77,23.9,51.23,19.93c17.46-3.97,52.91-7.48,73.49-4.21c20.58,3.27,57.76,25.35,57.76,25.35L465.48,129.41"/>
<path id="_x32_" class="st1" d="M525.54,128.67c0,0,32.79-41.72,100.97-57.5c28.71-6.83,100.95-7.95,92.65,24.36
	c-7.41,24.57-33.29,23.9-50.5,19.93c-17.21-3.97-52.16-7.48-72.45-4.21c-20.29,3.27-56.94,25.35-56.94,25.35L525.54,128.67"/>
</svg>
