<?xml version="1.0" standalone="no"?>
<!DOCTYPE svg PUBLIC "-//W3C//DTD SVG 20010904//EN"
 "http://www.w3.org/TR/2001/REC-SVG-20010904/DTD/svg10.dtd">
<svg version="1.0" xmlns="http://www.w3.org/2000/svg"
 width="969.000000pt" height="969.000000pt" viewBox="0 0 969.000000 969.000000"
 preserveAspectRatio="xMidYMid meet">
<metadata>
Created by potrace 1.14, written by Peter Selinger 2001-2017
</metadata>
<g transform="translate(0.000000,969.000000) scale(0.100000,-0.100000)"
fill="#000000" stroke="none">
<path d="M6518 8525 c-2 -1 -34 -5 -71 -9 -80 -7 -172 -21 -172 -26 0 -1 -9
-3 -20 -4 -38 -6 -140 -35 -222 -65 -78 -28 -105 -39 -199 -82 -22 -11 -46
-19 -52 -19 -7 0 -12 -4 -12 -9 0 -5 -16 -15 -35 -22 -19 -7 -35 -16 -35 -20
0 -4 -8 -9 -17 -13 -24 -7 -75 -38 -110 -64 -15 -12 -57 -43 -93 -69 -36 -26
-102 -84 -147 -128 l-83 -81 -72 43 c-40 24 -80 48 -88 53 -47 29 -125 70
-134 70 -6 0 -37 -16 -68 -34 -31 -19 -79 -47 -105 -62 -26 -14 -66 -37 -89
-50 l-41 -24 -30 32 c-16 18 -55 56 -87 83 -32 28 -63 55 -69 60 -29 24 -124
93 -147 105 -14 7 -27 16 -30 19 -7 9 -103 65 -112 66 -3 0 -10 3 -14 8 -7 6
-111 59 -124 62 -3 1 -16 6 -30 12 -66 28 -160 65 -172 67 -7 2 -20 6 -28 9
-34 13 -96 30 -117 33 -11 1 -30 5 -41 8 -90 29 -198 40 -397 40 -151 1 -288
-8 -305 -19 -4 -2 -21 -7 -40 -10 -51 -9 -153 -61 -180 -92 -39 -44 -47 -64
-43 -116 6 -92 68 -178 161 -223 52 -26 67 -28 172 -29 63 0 131 3 150 7 70
15 85 18 120 23 20 3 45 7 55 9 45 8 144 19 205 22 36 2 67 4 70 5 16 5 47 3
62 -3 9 -5 19 -4 22 0 3 5 31 7 63 6 198 -7 300 -36 538 -156 88 -44 170 -86
182 -92 30 -15 29 -19 -9 -39 -63 -32 -163 -90 -179 -103 -8 -8 -18 -14 -22
-14 -4 0 -41 -20 -83 -45 -41 -25 -80 -45 -85 -45 -5 0 -9 -4 -9 -10 0 -5 -4
-10 -9 -10 -4 0 -48 -23 -97 -51 -49 -29 -102 -59 -119 -69 -16 -9 -106 -61
-200 -115 -93 -54 -190 -110 -215 -124 -25 -14 -46 -29 -48 -33 -2 -4 -7 -8
-12 -8 -6 0 -63 -31 -220 -121 -14 -8 -28 -18 -31 -22 -3 -5 -9 -8 -13 -8 -3
1 -16 -5 -29 -12 -12 -7 -45 -27 -74 -44 -28 -17 -61 -34 -72 -38 -12 -3 -21
-11 -21 -16 0 -5 -4 -9 -9 -9 -8 0 -85 -43 -306 -173 -38 -23 -72 -42 -75 -42
-3 0 -16 -8 -30 -17 -48 -31 -323 -188 -331 -188 -4 0 -9 -3 -11 -7 -1 -5 -28
-21 -58 -37 -30 -16 -72 -40 -93 -53 l-38 -24 1 -642 c1 -353 1 -1125 0 -1716
0 -864 2 -1076 12 -1083 7 -5 69 -40 138 -80 69 -39 132 -77 140 -84 8 -7 18
-12 22 -11 4 1 17 -6 28 -16 11 -9 27 -17 35 -17 8 0 15 -4 15 -10 0 -5 4 -10
9 -10 5 0 55 -27 111 -60 56 -33 106 -60 111 -60 5 0 9 -4 9 -8 0 -4 12 -13
27 -20 16 -7 37 -18 48 -25 11 -7 43 -25 70 -40 28 -15 73 -41 100 -58 28 -16
57 -33 65 -36 8 -4 17 -9 20 -12 4 -5 35 -23 95 -55 11 -6 23 -15 27 -21 4 -5
8 -6 8 -1 0 5 8 2 18 -6 21 -18 115 -72 122 -71 3 1 12 -4 20 -12 8 -7 33 -22
55 -34 89 -48 156 -88 167 -99 7 -7 20 -12 29 -12 10 0 19 -4 21 -8 4 -10 162
-102 176 -102 5 0 12 -4 14 -9 2 -4 38 -28 81 -52 151 -85 184 -104 198 -115
8 -6 35 -21 61 -33 27 -13 48 -27 48 -32 0 -5 8 -9 17 -9 9 0 24 -6 32 -14 9
-7 41 -27 71 -43 30 -17 110 -62 177 -102 68 -39 127 -71 133 -71 5 0 10 -4
10 -10 0 -5 4 -10 10 -10 5 0 39 -18 75 -40 36 -22 65 -36 65 -32 0 4 4 2 8
-3 6 -10 34 -27 132 -82 19 -11 59 -34 88 -52 l54 -32 210 121 c115 67 225
130 243 140 19 10 52 30 74 44 22 15 43 26 46 26 3 0 22 11 43 24 59 37 126
74 136 74 5 0 12 4 15 9 8 11 270 163 281 163 5 0 10 3 12 8 2 4 23 18 48 31
25 13 66 37 92 54 25 16 50 29 55 29 4 0 15 5 23 12 8 7 46 31 84 52 37 21 94
54 125 72 31 18 70 39 87 47 17 7 36 21 44 29 7 9 17 16 22 16 5 0 47 22 94
50 47 27 87 50 90 50 3 0 17 8 32 19 15 10 124 74 242 141 241 138 427 246
450 260 8 6 22 13 30 17 8 4 43 24 78 45 34 21 67 38 72 38 6 0 10 3 10 8 0 4
10 12 23 17 32 16 111 59 117 65 3 3 16 11 30 18 14 7 34 18 45 25 20 12 20
21 17 1717 -1 938 -4 1710 -7 1716 -3 11 -36 31 -155 97 -30 16 -62 36 -70 43
-8 7 -26 18 -40 24 -14 6 -41 21 -61 33 -20 12 -63 37 -95 56 -33 19 -60 38
-62 43 -2 4 -8 8 -13 8 -6 0 -63 31 -127 69 -64 38 -134 78 -154 90 -62 35
-100 57 -153 88 -27 16 -57 32 -65 36 -8 4 -28 16 -45 26 -16 11 -52 32 -80
46 -27 15 -57 33 -66 41 -8 8 -18 14 -22 14 -3 0 -30 14 -59 31 -29 18 -73 43
-98 57 -25 13 -52 31 -61 38 -8 8 -19 14 -23 14 -4 0 -84 45 -177 100 -94 55
-173 100 -175 100 -2 0 -40 22 -83 49 -44 27 -81 47 -84 45 -2 -2 -12 5 -22
16 -10 11 -22 20 -27 20 -5 0 -47 23 -94 50 -47 28 -89 50 -93 50 -5 0 -11 4
-13 8 -1 4 -74 48 -160 97 -128 73 -154 91 -140 99 9 5 19 9 21 7 2 -1 7 1 10
6 3 4 15 14 26 20 33 21 307 155 319 157 6 1 16 4 21 8 25 15 175 55 175 47 0
-6 5 -7 12 -3 30 19 261 19 438 0 83 -9 145 -17 160 -21 8 -2 29 -6 45 -9 51
-9 89 -16 115 -21 52 -12 196 -6 250 10 127 38 223 192 187 299 -5 17 -21 43
-34 57 -25 28 -121 79 -147 79 -8 0 -17 4 -20 9 -3 4 -27 11 -53 14 -26 4 -59
9 -73 12 -24 6 -336 15 -342 10z"/>
</g>
</svg>
